{"title":"redbull_where_the_trail_ends.mkv","uid":7655874,"size":977154676,"categoryP":"video","categoryS":"other","magnet":"?xt=urn:btih:a4a40ce364e12b49bffaeb37a7030d7a0a84904c&amp;dn=redbull_where_the_trail_ends.mkv&amp;tr=udp%3A%2F%2Ftracker.openbittorrent.com%3A80&amp;tr=udp%3A%2F%2Fopen.demonii.com%3A1337&amp;tr=udp%3A%2F%2Ftracker.coppersurfer.tk%3A6969&amp;tr=udp%3A%2F%2Fexodus.desync.com%3A6969","seeders":0,"leechers":1,"uploader":"thresheek","files":1,"time":1348152999,"description":"red bull where the trail ends premiere web ripped\n\n\nDuration: 02:25:06.07, start: 0.000000, bitrate: N/A\n\nStream #0.0: Video: h264 (Main), yuv420p, 640x360 [PAR 1:1 DAR 16:9], 1k fps, 29.97 tbr, 1k tbn, 59.94 tbc (default)\n\nStream #0.1: Audio: aac, 48000 Hz, stereo, s16 (default)\n\nenjoy","torrent":{"xt":"urn:btih:a4a40ce364e12b49bffaeb37a7030d7a0a84904c","amp;dn":"redbull_where_the_trail_ends.mkv","amp;tr":["udp%3A%2F%2Ftracker.openbittorrent.com%3A80","udp%3A%2F%2Fopen.demonii.com%3A1337","udp%3A%2F%2Ftracker.coppersurfer.tk%3A6969","udp%3A%2F%2Fexodus.desync.com%3A6969"],"infoHash":"a4a40ce364e12b49bffaeb37a7030d7a0a84904c","infoHashBuffer":{"type":"Buffer","data":[164,164,12,227,100,225,43,73,191,250,235,55,167,3,13,122,10,132,144,76]},"announce":[],"urlList":[]}}